<svg xmlns="http://www.w3.org/2000/svg" xmlns:xlink="http://www.w3.org/1999/xlink" aria-hidden="true" role="img" class="iconify iconify--logos" width="35.93" height="32" preserveAspectRatio="xMidYMid meet" viewBox="0 0 256 228"><path fill="#00D8FF" d="M210.483 73.824a171.49 171.49 0 0 0-8.24-2.597c.465-1.9.893-3.777 1.273-5.621c6.238-30.281 2.16-54.676-11.769-62.708c-13.355-7.7-35.196.329-57.254 19.526a171.23 171.23 0 0 0-6.375 5.848a155.866 155.866 0 0 0-4.241-3.917C100.759 3.829 77.587-4.822 63.673 3.233C50.33 10.957 46.379 33.89 51.995 62.588a170.974 170.974 0 0 0 1.892 8.48c-3.28.932-6.445 1.924-9.474 2.98C17.309 83.498 0 98.307 0 113.668c0 15.865 18.582 31.778 46.812 41.427a145.52 145.52 0 0 0 6.921 2.165a167.467 167.467 0 0 0-2.01 9.138c-5.354 28.2-1.173 50.591 12.134 58.266c13.744 7.926 36.812-.22 59.273-19.855a145.567 145.567 0 0 0 5.342-4.923a168.064 168.064 0 0 0 6.92 6.314c21.758 18.722 43.246 26.282 56.54 18.586c13.731-7.949 18.194-32.003 12.4-61.268a145.016 145.016 0 0 0-1.535-6.842c1.62-.48 3.21-.974 4.76-1.488c29.348-9.723 48.443-25.443 48.443-41.52c0-15.417-17.868-30.326-45.517-39.844Zm-6.365 70.984c-1.4.463-2.836.91-4.3 1.345c-3.24-10.257-7.612-21.163-12.963-32.432c5.106-11 9.31-21.767 12.459-31.957c2.619.758 5.16 1.557 7.61 2.4c23.69 8.156 38.14 20.213 38.14 29.504c0 9.896-15.606 22.743-40.946 31.14Zm-10.514 20.834c2.562 12.94 2.927 24.64 1.23 33.787c-1.524 8.219-4.59 13.698-8.382 15.893c-8.067 4.67-25.32-1.4-43.927-17.412a156.926 156.926 0 0 1-6.437-5.87c7.214-7.889 14.423-16.608 21.459-25.993c13.024 4.494 26.096 7.844 38.729 9.999c1.813.391 3.6.774 5.328 1.147Zm-31.219 5.673c-8.267 11.058-17.342 21.324-26.807 30.511a134.17 134.17 0 0 1-4.241 3.696c-17.97 15.557-34.1 20.836-42.025 17.219c-7.72-3.533-10.877-16.535-7.321-35.002a134.824 134.824 0 0 1 1.893-8.499c12.716-2.1 25.924-5.258 39.151-9.404c8.627 9.78 17.323 19.092 25.879 27.725a347.8 347.8 0 0 0 13.47 12.354ZM87.276 214.515c-8.067-4.669-11.9-17.644-9.408-37.781a160.342 160.342 0 0 1 1.719-7.833c12.728 2.168 25.907 5.278 39.083 9.313c8.442 9.568 17.139 18.93 25.812 27.876a134.741 134.741 0 0 1-4.081 3.559c-9.44 8.028-19.64 14.67-30.173 19.796a88.912 88.912 0 0 1-22.952 4.07Zm-31.24-82.851c-12.726-2.1-25.924-5.258-39.151-9.404c-8.627-9.78-17.323-19.092-25.879-27.725a347.8 347.8 0 0 0-13.47-12.354c8.267-11.058 17.342-21.324 26.807-30.511a134.17 134.17 0 0 1 4.241-3.696c17.97-15.557 34.1-20.836 42.025-17.219c7.72 3.533 10.877 16.535 7.321 35.002a134.824 134.824 0 0 1-1.893 8.499Zm8.56-57.188c-1.524-8.219-4.59-13.698-8.382-15.893c-8.067-4.67-25.32 1.4-43.927 17.412a156.926 156.926 0 0 1-6.437 5.87c7.214 7.889 14.423 16.608 21.459 25.993c13.024-4.494 26.096-7.844 38.729-9.999c1.813-.391 3.6-.774 5.328-1.147c-2.562-12.94-2.927-24.64-1.23-33.787c1.524-8.219 4.59-13.698 8.382-15.893c8.067-4.67 25.32 1.4 43.927 17.412a156.926 156.926 0 0 1 6.437 5.87c-7.214 7.889-14.423 16.608-21.459 25.993c-13.024-4.494-26.096-7.844-38.729-9.999a144.827 144.827 0 0 1-5.328-1.147c2.562-12.94 2.927-24.64 1.23-33.787Zm113.89 21.631a347.8 347.8 0 0 0-13.47-12.354c-8.267-11.058-17.342-21.324-26.807-30.511a134.17 134.17 0 0 1-4.241-3.696c-17.97-15.557-34.1-20.836-42.025-17.219c-7.72 3.533-10.877 16.535-7.321 35.002a134.824 134.824 0 0 1 1.893 8.499c12.716 2.1 25.924 5.258 39.151 9.404c8.442 9.568 17.139 18.93 25.812 27.876a134.741 134.741 0 0 1 4.081 3.559c9.44 8.028 19.64 14.67 30.173 19.796a88.912 88.912 0 0 0 22.952 4.07c8.067 4.669 11.9 17.644 9.408 37.781a160.342 160.342 0 0 1-1.719 7.833c-12.728-2.168-25.907-5.278-39.083-9.313c-8.442-9.568-17.139-18.93-25.812-27.876Zm-8.033 28.232c3.24 10.257 7.612 21.163 12.963 32.432c-5.106 11-9.31 21.767-12.459 31.957c-2.619-.758-5.16-1.557-7.61-2.4c-23.69-8.156-38.14-20.213-38.14-29.504c0-9.896 15.606-22.743 40.946-31.14c1.4-.463 2.836-.91 4.3-1.345Zm-76.717 22.566c-2.619-.758-5.16-1.557-7.61-2.4c-23.69-8.156-38.14-20.213-38.14-29.504c0-9.896 15.606-22.743 40.946-31.14c1.4-.463 2.836-.91 4.3-1.345c3.24 10.257 7.612 21.163 12.963 32.432c-5.106 11-9.31 21.767-12.459 31.957Z"></path><ellipse cx="128" cy="113.668" fill="#00D8FF" rx="45.361" ry="45.361"></ellipse><path fill="#00D8FF" d="M128 149.668a36 36 0 1 1 36-36a36.04 36.04 0 0 1-36 36Zm0-64a28 28 0 1 0 28 28a28.032 28.032 0 0 0-28-28Z"></path></svg>

